<svg width="50" height="52" viewBox="0 0 50 52" fill="none" xmlns="http://www.w3.org/2000/svg">
<path d="M49.4265 17.9232L41.5918 13.4241C41.757 13.1621 41.9178 12.8963 42.0729 12.6276C43.4724 10.2031 44.3801 7.67517 44.6276 5.50931C44.8996 3.13431 44.3428 1.41787 43.0602 0.677558C41.7776 -0.0627504 40.0133 0.312688 38.0922 1.73601C36.3401 3.03364 34.6048 5.08325 33.2048 7.50775C32.8144 8.18409 32.4634 8.86878 32.153 9.5518L23.7449 7.4143C23.4062 7.32865 23.058 7.42432 22.811 7.67127L0.368181 30.1141C0.182408 30.2999 0.0806228 30.5463 0.081179 30.8083C0.0817352 31.0702 0.184077 31.3161 0.370405 31.5018L17.249 48.2859C17.4398 48.4755 17.6895 48.5701 17.9398 48.5701C18.1906 48.5701 18.4415 48.4744 18.6323 48.2836L24.1559 42.7605V50.712C24.1559 50.9746 24.2583 51.2215 24.4435 51.4062C24.6281 51.5903 24.874 51.6915 25.1354 51.6915H25.1382L48.9415 51.6253C49.4805 51.6242 49.9188 51.1843 49.9188 50.6458V18.7726C49.9182 18.4177 49.7347 18.0995 49.4265 17.9232ZM34.4663 8.23526C35.7684 5.97985 37.3641 4.08709 38.9593 2.90571C40.3648 1.8645 41.5946 1.51186 42.3327 1.93847C43.0713 2.36453 43.3806 3.60597 43.1815 5.34356C42.9556 7.31586 42.1141 9.64413 40.812 11.8995C40.6563 12.1693 40.4944 12.4357 40.3281 12.6982L37.6606 11.1665C37.5299 10.9951 37.3441 10.8711 37.125 10.8155L33.5875 9.91611C33.8506 9.35546 34.1442 8.79314 34.4663 8.23526ZM17.9387 46.9182L1.73589 30.8049L23.6492 8.89158L31.5902 10.91C31.2136 11.9168 30.9344 12.9035 30.767 13.8374C30.02 13.9441 29.2997 14.2845 28.7263 14.858C27.3163 16.268 27.3163 18.5618 28.7263 19.9717C29.4315 20.677 30.3571 21.0291 31.2831 21.0291C32.2087 21.0291 33.1353 20.6764 33.84 19.9717C34.523 19.2887 34.899 18.3804 34.899 17.4149C34.899 16.4487 34.523 15.541 33.84 14.858C33.3784 14.3963 32.821 14.0865 32.2315 13.9275C32.3944 13.0815 32.6564 12.186 33.0085 11.2705L36.4959 12.1571L39.9449 24.9108L17.9387 46.9182ZM32.1302 19.4005C31.3432 19.7353 30.3965 19.5835 29.7558 18.9428C28.9137 18.1007 28.9137 16.7302 29.7558 15.8881C29.9989 15.645 30.287 15.4743 30.5929 15.3714C30.5117 17.307 31.0467 18.718 32.1302 19.4005ZM33.2438 18.3181C33.1381 18.2892 33.0385 18.2497 32.9456 18.1958C32.2965 17.8209 31.9789 16.8158 32.0474 15.3969C32.3255 15.5021 32.5869 15.6639 32.8105 15.8875C33.2182 16.2952 33.4429 16.8381 33.4429 17.4149C33.4429 17.733 33.3728 18.0389 33.2438 18.3181ZM48.4621 50.1703L25.6115 50.2337V41.3038L29.8948 37.0205C30.0278 37.164 30.2174 37.2541 30.4282 37.2541H43.6448C44.0469 37.2541 44.3728 36.9282 44.3728 36.526C44.3728 36.1239 44.0469 35.798 43.6448 35.798H31.1179L36.6305 30.2854H43.6453C44.0475 30.2854 44.3734 29.9595 44.3734 29.5574C44.3734 29.1552 44.0475 28.8293 43.6453 28.8293H38.0866L41.1697 25.7462C41.4205 25.4954 41.5151 25.1411 41.4227 24.7979L38.288 13.2061L48.4621 19.049V50.1703ZM44.3734 43.4953C44.3734 43.8974 44.0475 44.2234 43.6453 44.2234H30.4288C30.0267 44.2234 29.7007 43.8974 29.7007 43.4953C29.7007 43.0932 30.0267 42.7672 30.4288 42.7672H43.6453C44.0475 42.7672 44.3734 43.0932 44.3734 43.4953ZM19.7675 38.277C20.0517 38.5612 20.0517 39.0223 19.7675 39.3065C19.6251 39.4489 19.4388 39.5195 19.2524 39.5195C19.0661 39.5195 18.8798 39.4483 18.7374 39.3065L9.39204 29.9612C9.10782 29.6769 9.10782 29.2158 9.39204 28.9316C9.67626 28.6474 10.1374 28.6474 10.4216 28.9316L19.7675 38.277ZM24.6949 33.3496C24.9791 33.6338 24.9791 34.0949 24.6949 34.3791C24.5525 34.5215 24.3662 34.5921 24.1798 34.5921C23.9935 34.5921 23.8072 34.5209 23.6648 34.3791L14.32 25.0332C14.0358 24.749 14.0358 24.2879 14.32 24.0037C14.6042 23.7194 15.0653 23.7194 15.3495 24.0037L24.6949 33.3496ZM29.6229 28.4216C29.9071 28.7058 29.9071 29.1669 29.6229 29.4511C29.4805 29.5935 29.2941 29.6641 29.1078 29.6641C28.9215 29.6641 28.7352 29.593 28.5928 29.4511L19.2474 20.1058C18.9632 19.8216 18.9632 19.3605 19.2474 19.0762C19.5316 18.792 19.9933 18.792 20.277 19.0762L29.6229 28.4216Z" fill="black"/>
</svg>
