<svg width="50" height="52" viewBox="0 0 50 52" fill="none" xmlns="http://www.w3.org/2000/svg">
<path d="M49.4307 20.943C49.4329 20.613 49.3065 20.3002 49.0772 20.0623C48.8458 19.8245 48.5329 19.6916 48.19 19.6895C46.9836 19.6895 45.985 20.6002 45.8715 21.798L45.2307 28.1109C45.1686 28.1173 45.1043 28.128 45.0443 28.1409C44.7893 28.1966 44.5429 28.2802 44.2729 28.4002C43.7457 28.6616 43.2615 28.998 42.8329 29.403C42.4193 29.793 42.0315 30.213 41.6672 30.6759L41.5236 30.8645C41.29 31.1709 41.0715 31.4538 40.8422 31.803C40.7329 31.9573 40.6236 32.1138 40.5786 32.2059C40.06 32.9688 39.4407 33.6523 38.7314 34.2352C32.4357 34.3981 27.3614 39.5709 27.3593 45.9074V50.6431C27.3593 51.1166 27.745 51.5002 28.2164 51.5002H35.7979C36.2714 51.5002 36.655 51.1145 36.655 50.6431L36.6529 47.5531C36.5972 46.5952 37.0557 45.6652 37.8036 45.1574C39.4579 44.1888 41.0757 43.1452 42.6079 42.0523C44.6929 40.5609 46.3365 38.5252 47.3629 36.1702L48.7022 33.0888C49.5207 31.1945 49.8979 29.1073 49.7908 27.0438L49.4307 20.943ZM47.1293 32.4052L45.79 35.4866C44.89 37.5566 43.4436 39.3459 41.6136 40.6552C40.1264 41.7181 38.5514 42.7338 36.8907 43.7066C35.5964 44.5831 34.8507 46.0959 34.9407 47.6024V49.7859H29.0736V45.9031C29.0757 40.4109 33.5436 35.9431 39.0336 35.9431C39.2243 35.9431 39.4086 35.8788 39.5586 35.7609C40.5014 35.0281 41.32 34.1559 42.0336 33.0995C42.0915 32.9945 42.1665 32.8938 42.2993 32.703C42.4793 32.4245 42.6743 32.1738 42.88 31.9059L43.0193 31.7238C43.3215 31.3402 43.6493 30.9823 44.005 30.648C44.3115 30.3609 44.6565 30.1209 44.9972 29.9495C45.0915 29.9088 45.19 29.8809 45.2865 29.853C44.6222 31.8995 43.4457 33.7445 41.8536 35.1952C41.5043 35.5123 41.4786 36.0545 41.7979 36.4059C41.9672 36.5923 42.2007 36.6866 42.4322 36.6866C42.6379 36.6866 42.8436 36.6116 43.0107 36.4638C44.8922 34.7516 46.2765 32.5616 47.0479 29.9795C47.0865 29.6516 46.9986 29.3366 46.8593 29.0452L47.5793 21.9673C47.5922 21.8195 47.6565 21.6887 47.7529 21.5902L48.0786 27.138C48.1707 28.9295 47.8429 30.753 47.1293 32.4052Z" fill="black"/>
<path d="M11.2707 34.2294C10.5528 33.6487 9.92926 32.9694 9.44069 32.2559C9.34211 32.0823 9.2414 31.9109 9.1364 31.763C8.92426 31.4437 8.7014 31.1523 8.4614 30.8394L8.31783 30.6509C7.96211 30.2137 7.58283 29.8001 7.16282 29.393C6.72782 28.9901 6.23711 28.6537 5.69925 28.3923C5.44639 28.2701 5.18068 28.1823 4.93211 28.1351C4.88068 28.1244 4.82711 28.1158 4.77353 28.1094L4.13068 21.7901C4.00425 20.6116 3.01425 19.7051 1.81639 19.6858C1.03853 19.6708 0.55424 20.243 0.549955 20.8987L0.20924 27.0444C0.102097 29.1037 0.47924 31.1951 1.29996 33.0851L2.63924 36.1644C3.6571 38.528 5.30068 40.5637 7.38782 42.0466C8.76568 43.0452 10.4307 44.1209 12.145 45.1195C12.9314 45.6637 13.3857 46.5937 13.3257 47.6009V50.6416C13.3257 51.1152 13.7093 51.4987 14.1828 51.4987H21.7879C22.2614 51.4987 22.645 51.113 22.645 50.6416V45.8995C22.6364 39.5716 17.56 34.3987 11.2707 34.2294ZM20.9307 49.7845H15.04V47.6545C15.1343 46.103 14.3971 44.5923 13.0643 43.6752C10.8893 42.4044 9.32497 41.3352 8.38854 40.6559C6.54997 39.3509 5.10568 37.5637 4.2121 35.4873L2.87282 32.4059C2.1571 30.7537 1.82924 28.9323 1.92139 27.1387L2.22781 21.578C2.33496 21.6787 2.40567 21.8158 2.42282 21.9701L3.14496 29.0566C3.00996 29.3566 2.92853 29.6951 2.98639 30.1216C3.72353 32.5473 5.10139 34.7373 6.96782 36.4559C7.13282 36.608 7.34068 36.683 7.54854 36.683C7.77997 36.683 8.00925 36.5887 8.17854 36.4044C8.49783 36.0573 8.4764 35.5151 8.12925 35.1959C6.50711 33.7001 5.30925 31.8037 4.68568 29.8494C4.77568 29.873 4.86568 29.8966 4.94925 29.9351C5.33282 30.1216 5.68425 30.3637 5.98425 30.638C6.33997 30.983 6.67425 31.3473 6.96997 31.7116L7.10282 31.883C7.31711 32.1616 7.5164 32.4187 7.71783 32.7273C7.80783 32.8537 7.87854 32.978 7.98568 33.1623C8.66283 34.1587 9.49212 35.033 10.4478 35.7637C10.5957 35.8794 10.78 35.9394 10.9664 35.9416C16.4521 35.948 20.9221 40.418 20.9286 45.9016V49.7845H20.9307Z" fill="black"/>
<path d="M14.9932 33.7851L35.1018 33.7808C37.3454 33.7101 39.1133 31.8265 39.0404 29.5743L38.929 26.7393C38.7768 22.8586 35.8754 19.6593 32.0247 19.13L30.2697 18.8986C29.7168 18.8215 29.2497 18.5065 28.9604 18.0565C30.889 16.7707 32.1661 14.5807 32.1661 12.095V7.66144C32.1661 3.71215 28.9518 0.5 25.0025 0.5C21.0532 0.5 17.8411 3.71215 17.8411 7.66144V12.0929C17.8411 14.5765 19.114 16.7643 21.0382 18.05C20.7511 18.5022 20.2775 18.8257 19.7247 18.8965L17.974 19.1279C14.1297 19.6572 11.2261 22.8586 11.0739 26.735L10.9518 29.7158C10.9454 31.9465 12.7561 33.7743 14.9932 33.7851ZM29.4318 20.4158C29.6333 20.48 29.824 20.5658 30.0404 20.5936L30.1325 20.6065L28.4204 23.9022L27.2611 22.5865L29.4318 20.4158ZM37.2168 26.8058L37.3283 29.6343C37.3476 30.2643 37.1204 30.8643 36.6897 31.3229C36.259 31.7836 35.6761 32.0472 35.0033 32.0686H25.924V23.9236L26.0483 23.7993L27.964 25.9743C28.1268 26.1608 28.3625 26.2658 28.6068 26.2658C28.6411 26.2658 28.6754 26.2636 28.7118 26.2593C28.9925 26.225 29.2368 26.0536 29.3675 25.805L31.9368 20.8593C34.8833 21.3329 37.0968 23.8058 37.2168 26.8058ZM25.0025 2.21429C28.0068 2.21429 30.4497 4.65929 30.4497 7.66144V7.8093L29.5347 6.8943C29.2604 6.61787 28.8983 6.46358 28.5083 6.46358C28.1183 6.54287 27.754 6.61144 27.4733 6.89001C26.1554 8.21001 23.8454 8.20787 22.5297 6.89215C22.2575 6.61787 21.8932 6.46358 21.5032 6.46358H21.499C21.1132 6.46358 20.7511 6.61358 20.4725 6.89001L19.5554 7.8093V7.66144C19.5554 4.65929 22.0004 2.21429 25.0025 2.21429ZM19.5554 12.0929V10.2329L21.5054 8.28501C23.4254 10.025 26.5818 10.025 28.4975 8.28501L30.4497 10.2372V12.0929C30.4497 15.0972 28.0068 17.54 25.0025 17.54C22.0004 17.54 19.5554 15.0972 19.5554 12.0929ZM25.0025 19.2543C25.8533 19.2543 26.659 19.0786 27.4175 18.8065C27.559 19.0593 27.7433 19.2757 27.9383 19.4836L25.0583 22.3636L22.1118 19.4107C22.2832 19.22 22.4482 19.0272 22.5768 18.8022C23.3375 19.0786 24.1475 19.2543 25.0025 19.2543ZM20.6632 20.3879L22.7975 22.52L21.5825 23.9022L19.8725 20.6043L19.9475 20.5936C20.2004 20.5615 20.4297 20.4693 20.6632 20.3879ZM12.7882 26.8058C12.9061 23.8036 15.124 21.3286 18.0747 20.8572L20.6397 25.8029C20.7704 26.0536 21.0147 26.225 21.2975 26.2593C21.3318 26.2636 21.3661 26.2658 21.4004 26.2658C21.6447 26.2658 21.8804 26.1608 22.0432 25.9743L24.0125 23.7329L24.2075 23.9279V32.0665H14.9975C13.7075 32.0601 12.6639 31.0079 12.6704 29.6408L12.7882 26.8058Z" fill="black"/>
<path d="M26.8814 26.8086C26.5536 26.8086 26.2878 27.0743 26.2878 27.4022C26.2878 27.73 26.5536 27.9957 26.8814 27.9957C27.2093 27.9957 27.475 27.73 27.475 27.4022C27.475 27.0743 27.2093 26.8086 26.8814 26.8086Z" fill="black"/>
<path d="M26.8814 29.0098C26.5536 29.0098 26.2878 29.2755 26.2878 29.6033C26.2878 29.9312 26.5536 30.1969 26.8814 30.1969C27.2093 30.1969 27.475 29.9312 27.475 29.6033C27.475 29.2755 27.2093 29.0098 26.8814 29.0098Z" fill="black"/>
</svg>
