<svg width="46" height="52" viewBox="0 0 46 52" fill="none" xmlns="http://www.w3.org/2000/svg">
<path d="M9.20682 40.7617C8.72453 40.7617 8.25307 40.9047 7.85206 41.1727C7.45105 41.4406 7.1385 41.8215 6.95393 42.267C6.76937 42.7126 6.72108 43.2029 6.81517 43.676C6.90926 44.149 7.1415 44.5835 7.48253 44.9245C7.82356 45.2655 8.25806 45.4978 8.73109 45.5919C9.20411 45.686 9.69441 45.6377 10.14 45.4531C10.5856 45.2685 10.9664 44.956 11.2344 44.555C11.5023 44.154 11.6453 43.6825 11.6453 43.2002C11.6453 42.5535 11.3884 41.9332 10.9311 41.4759C10.4738 41.0186 9.85355 40.7617 9.20682 40.7617ZM9.20682 44.0927C9.03029 44.0927 8.85773 44.0404 8.71096 43.9423C8.56418 43.8443 8.44978 43.7049 8.38223 43.5418C8.31468 43.3787 8.297 43.1992 8.33144 43.0261C8.36588 42.853 8.45088 42.6939 8.57571 42.5691C8.70053 42.4443 8.85956 42.3593 9.03269 42.3248C9.20583 42.2904 9.38528 42.3081 9.54837 42.3756C9.71146 42.4432 9.85085 42.5576 9.94892 42.7044C10.047 42.8511 10.0993 43.0237 10.0993 43.2002C10.0993 43.4369 10.0053 43.664 9.83793 43.8313C9.67055 43.9987 9.44353 44.0927 9.20682 44.0927Z" fill="black"/>
<path d="M44.0949 15.8977L39.8554 11.6582C39.4113 11.2197 38.8628 10.9015 38.2616 10.7338C37.976 10.2434 37.5805 9.82603 37.1061 9.51453L32.0857 6.25522C31.5523 5.91232 30.9411 5.70949 30.3086 5.66552C29.9257 5.21909 29.4384 4.87418 28.8901 4.66143L23.3118 2.50981C22.7262 2.284 22.0929 2.20998 21.471 2.29465C20.9997 1.9464 20.4542 1.71185 19.8772 1.60931L13.9563 0.661007C13.3258 0.568438 12.6823 0.634164 12.0836 0.852262C11.5554 0.588774 10.9675 0.467902 10.3782 0.501627L4.3935 0.8682C3.36016 0.971358 2.40792 1.47387 1.7396 2.26872C1.07128 3.06356 0.73968 4.08792 0.815433 5.12363L2.58454 47.662C2.60493 48.2092 2.73296 48.7471 2.96131 49.2448C3.18966 49.7425 3.51385 50.1903 3.91536 50.5627C4.56756 51.1626 5.41993 51.4979 6.30605 51.503H6.52122L12.5059 51.1444C13.0554 51.1016 13.5882 50.9362 14.0654 50.6604C14.5425 50.3845 14.9518 50.0054 15.2632 49.5506C15.7407 49.3753 16.1773 49.1041 16.5462 48.7537L44.0949 21.221C44.7995 20.5144 45.1952 19.5572 45.1952 18.5593C45.1952 17.5614 44.7995 16.6043 44.0949 15.8977ZM36.2933 10.8135C36.6355 11.0326 36.9111 11.3413 37.0902 11.706C37.2465 12.0367 37.3203 12.4004 37.3053 12.7659C37.3014 12.8003 37.3014 12.8351 37.3053 12.8695C37.2904 13.007 37.2637 13.1429 37.2257 13.2759V13.3954C37.171 13.5633 37.096 13.7238 37.0025 13.8736L18.4428 42.3387L31.0816 9.53047C31.3246 8.90164 31.3935 8.21886 31.2808 7.55417L36.2933 10.8135ZM13.3187 17.2365L2.9033 18.121L2.78377 15.3H2.88737L13.1992 14.4553L13.3187 17.2365ZM2.95909 19.6272L13.3825 18.8303L13.5897 23.8029L3.17425 24.6396L2.95909 19.6272ZM28.3642 6.07991C28.6308 6.18967 28.8729 6.35133 29.0765 6.55551C29.2801 6.75968 29.4411 7.00229 29.5501 7.26923C29.6591 7.53617 29.714 7.82211 29.7115 8.11044C29.709 8.39876 29.6492 8.68372 29.5356 8.94874L17.5821 39.7887L23.001 5.9285C23.024 5.71394 23.024 5.49756 23.001 5.28301C23.005 5.21932 23.005 5.15544 23.001 5.09175C22.9928 4.91465 22.9688 4.73864 22.9293 4.5658C22.9331 4.52339 22.9331 4.48072 22.9293 4.4383C22.8909 4.27534 22.8403 4.11551 22.7779 3.96016L28.3642 6.07991ZM19.5983 3.11545C20.0328 3.18499 20.4358 3.38511 20.7538 3.68922C20.8835 3.8131 21.0009 3.9492 21.1044 4.09563L21.1443 4.16735C21.2175 4.28989 21.2814 4.41776 21.3355 4.54986C21.3401 4.59224 21.3401 4.63499 21.3355 4.67737C21.3732 4.7974 21.4024 4.91988 21.4232 5.04394C21.4232 5.09175 21.4232 5.1316 21.4232 5.17941C21.4391 5.34905 21.4391 5.51979 21.4232 5.68943L16.1079 39.1989L14.3388 4.07969C14.3051 3.40572 14.0904 2.75327 13.7172 2.19105L19.5983 3.11545ZM4.45725 2.3823L10.4419 2.0237C10.7139 2.00999 10.9859 2.05087 11.2419 2.14394C11.4978 2.237 11.7325 2.38037 11.9321 2.56559C12.4241 3.04445 12.71 3.69625 12.729 4.38252L13.0797 12.8854L2.72002 13.7461L2.35344 5.05988C2.29683 4.42716 2.48773 3.79713 2.88601 3.30225C3.28429 2.80737 3.85894 2.48618 4.48913 2.40621L4.45725 2.3823ZM12.4262 49.5745L6.44153 49.9332C6.16949 49.9473 5.89739 49.9066 5.64139 49.8136C5.38539 49.7205 5.15072 49.5769 4.95133 49.3913C4.45579 48.9149 4.16923 48.2616 4.15443 47.5743L3.238 26.1856L13.6534 25.325L14.5539 46.9448C14.5579 46.9925 14.5579 47.0405 14.5539 47.0882C14.5539 47.1679 14.5539 47.2556 14.5539 47.3432C14.5354 47.486 14.5061 47.6272 14.4663 47.7656C14.3982 48.0274 14.2907 48.2772 14.1475 48.5067C13.9695 48.8136 13.7201 49.0731 13.4204 49.2632C13.1208 49.4532 12.7798 49.5682 12.4262 49.5985V49.5745ZM42.9952 20.0894L19.3672 43.7572L24.8977 35.2543L38.2457 14.7262C38.368 14.5346 38.4721 14.3318 38.5565 14.1206C38.5565 14.0728 38.5565 14.025 38.6123 13.9692C38.6874 13.7698 38.7461 13.5646 38.7876 13.3556C38.8157 13.1923 38.8317 13.0271 38.8354 12.8615L42.9872 17.0133C43.3985 17.427 43.6301 17.9863 43.6316 18.5696C43.633 19.153 43.4044 19.7134 42.9952 20.1292V20.0894Z" fill="black"/>
</svg>
